<svg xmlns="http://www.w3.org/2000/svg" width="1200" height="680" viewBox="0 0 1200 680">
<defs>
  <filter id="shadow" x="-20%" y="-20%" width="140%" height="140%">
    <feDropShadow dx="0" dy="6" stdDeviation="5" flood-color="#0f172a" flood-opacity="0.12"/>
  </filter>
  <linearGradient id="bg" x1="0" y1="0" x2="1" y2="1">
    <stop offset="0" stop-color="#f8fafc"/><stop offset="1" stop-color="#eef2ff"/>
  </linearGradient>
  <linearGradient id="purple" x1="0" y1="0" x2="1" y2="1">
    <stop offset="0" stop-color="#faf5ff"/><stop offset="1" stop-color="#ede9fe"/>
  </linearGradient>
  <linearGradient id="green" x1="0" y1="0" x2="1" y2="1">
    <stop offset="0" stop-color="#f0fdf4"/><stop offset="1" stop-color="#dcfce7"/>
  </linearGradient>
  <linearGradient id="blue" x1="0" y1="0" x2="1" y2="1">
    <stop offset="0" stop-color="#eff6ff"/><stop offset="1" stop-color="#dbeafe"/>
  </linearGradient>
  <linearGradient id="amber" x1="0" y1="0" x2="1" y2="1">
    <stop offset="0" stop-color="#fffbeb"/><stop offset="1" stop-color="#fef3c7"/>
  </linearGradient>
  <marker id="arrowBlue" markerWidth="12" markerHeight="12" refX="10" refY="6" orient="auto"><path d="M2,2 L10,6 L2,10 Z" fill="#1d4ed8"/></marker>
  <marker id="arrowGreen" markerWidth="12" markerHeight="12" refX="10" refY="6" orient="auto"><path d="M2,2 L10,6 L2,10 Z" fill="#15803d"/></marker>
  <marker id="arrowPurple" markerWidth="12" markerHeight="12" refX="10" refY="6" orient="auto"><path d="M2,2 L10,6 L2,10 Z" fill="#6d28d9"/></marker>
  <marker id="arrowAmber" markerWidth="12" markerHeight="12" refX="10" refY="6" orient="auto"><path d="M2,2 L10,6 L2,10 Z" fill="#b45309"/></marker>
  <style>
    .title{font-family:Inter,Segoe UI,Arial,sans-serif;font-size:34px;font-weight:800;fill:#111827;}
    .subtitle{font-family:Inter,Segoe UI,Arial,sans-serif;font-size:18px;font-style:italic;fill:#4b5563;}
    .h{font-family:Inter,Segoe UI,Arial,sans-serif;font-size:21px;font-weight:750;fill:#111827;}
    .sh{font-family:Inter,Segoe UI,Arial,sans-serif;font-size:17px;font-weight:700;fill:#374151;}
    .txt{font-family:Inter,Segoe UI,Arial,sans-serif;font-size:15px;fill:#374151;}
    .small{font-family:Inter,Segoe UI,Arial,sans-serif;font-size:13px;fill:#4b5563;}
    .tiny{font-family:Inter,Segoe UI,Arial,sans-serif;font-size:11px;fill:#6b7280;}
    .code{font-family:ui-monospace,SFMono-Regular,Consolas,monospace;font-size:13px;fill:#111827;}
    .num{font-family:Inter,Segoe UI,Arial,sans-serif;font-size:14px;font-weight:800;fill:white;}
    .icon{font-family:Apple Color Emoji,Segoe UI Emoji,Noto Color Emoji,sans-serif;font-size:25px;}
  </style>
</defs>
<rect width="1200" height="680" fill="url(#bg)"/><text x="600" y="48" class="title" text-anchor="middle">LLM vs Agent</text><text x="600" y="78" class="subtitle" text-anchor="middle">Text generation versus action-oriented problem solving</text><rect x="90" y="150" width="420" height="360" rx="18" fill="url(#blue)" stroke="#1d4ed8" stroke-width="2" filter="url(#shadow)"/><text x="300" y="192" class="h" text-anchor="middle"><tspan x="300" dy="0">LLM-only Flow</tspan></text><rect x="160" y="250" width="280" height="64" rx="14" fill="#fff" stroke="#bfdbfe" stroke-width="1.5" filter="url(#shadow)"/><text x="300" y="290" class="sh" text-anchor="middle"><tspan x="300" dy="0">User Prompt</tspan></text><line x1="300" y1="314" x2="300" y2="365" stroke="#1d4ed8" stroke-width="3" marker-end="url(#arrowBlue)"/><rect x="160" y="365" width="280" height="64" rx="14" fill="#fff" stroke="#bfdbfe" stroke-width="1.5" filter="url(#shadow)"/><text x="300" y="405" class="sh" text-anchor="middle"><tspan x="300" dy="0">LLM</tspan></text><line x1="300" y1="429" x2="300" y2="480" stroke="#1d4ed8" stroke-width="3" marker-end="url(#arrowBlue)"/><rect x="160" y="480" width="280" height="64" rx="14" fill="#fff" stroke="#bfdbfe" stroke-width="1.5" filter="url(#shadow)"/><text x="300" y="520" class="sh" text-anchor="middle"><tspan x="300" dy="0">Text Output</tspan></text><rect x="690" y="150" width="420" height="470" rx="18" fill="url(#purple)" stroke="#6d28d9" stroke-width="2" filter="url(#shadow)"/><text x="900" y="192" class="h" text-anchor="middle"><tspan x="900" dy="0">Agent Flow</tspan></text><rect x="760" y="245" width="280" height="58" rx="14" fill="#fff" stroke="#ddd6fe" stroke-width="1.5" filter="url(#shadow)"/><circle cx="790" cy="274" r="15" fill="#1d4ed8"/><text x="790" y="279" class="num" text-anchor="middle">1</text><text x="920" y="280" class="sh" text-anchor="middle"><tspan x="920" dy="0">User Prompt</tspan></text><line x1="900" y1="303" x2="900" y2="337" stroke="#1d4ed8" stroke-width="3" marker-end="url(#arrowBlue)"/><rect x="760" y="337" width="280" height="58" rx="14" fill="#fff" stroke="#ddd6fe" stroke-width="1.5" filter="url(#shadow)"/><circle cx="790" cy="366" r="15" fill="#6d28d9"/><text x="790" y="371" class="num" text-anchor="middle">2</text><text x="920" y="372" class="sh" text-anchor="middle"><tspan x="920" dy="0">LLM reasoning</tspan></text><line x1="900" y1="395" x2="900" y2="429" stroke="#6d28d9" stroke-width="3" marker-end="url(#arrowPurple)"/><rect x="760" y="429" width="280" height="58" rx="14" fill="#fff" stroke="#86efac" stroke-width="1.5" filter="url(#shadow)"/><circle cx="790" cy="458" r="15" fill="#15803d"/><text x="790" y="463" class="num" text-anchor="middle">3</text><text x="920" y="464" class="sh" text-anchor="middle"><tspan x="920" dy="0">Tool action</tspan></text><line x1="900" y1="487" x2="900" y2="521" stroke="#15803d" stroke-width="3" marker-end="url(#arrowGreen)"/><rect x="760" y="521" width="280" height="58" rx="14" fill="#fff" stroke="#ddd6fe" stroke-width="1.5" filter="url(#shadow)"/><circle cx="790" cy="550" r="15" fill="#1d4ed8"/><text x="790" y="555" class="num" text-anchor="middle">4</text><text x="920" y="556" class="sh" text-anchor="middle"><tspan x="920" dy="0">Observation</tspan></text><line x1="900" y1="579" x2="900" y2="613" stroke="#1d4ed8" stroke-width="3" marker-end="url(#arrowBlue)"/><rect x="760" y="613" width="280" height="58" rx="14" fill="#fff" stroke="#ddd6fe" stroke-width="1.5" filter="url(#shadow)"/><circle cx="790" cy="642" r="15" fill="#b45309"/><text x="790" y="647" class="num" text-anchor="middle">5</text><text x="920" y="648" class="sh" text-anchor="middle"><tspan x="920" dy="0">Final Answer</tspan></text><path d="M 730 390 C 675 390 675 520 760 520" fill="none" stroke="#6d28d9" stroke-width="3" marker-end="url(#arrowPurple)" stroke-dasharray="8 8"/><text x="645" y="455" class="small" text-anchor="middle"><tspan x="645" dy="0">Iteration</tspan><tspan x="645" dy="22">when needed</tspan></text></svg>